<svg xmlns="http://www.w3.org/2000/svg"  viewBox="0 0 64 64" width="64px" height="64px"><linearGradient id="6fugk4PzOTSoSF8yJ3ewBa" x1="51.328" x2="51.328" y1="20.213" y2="35.379" gradientUnits="userSpaceOnUse"><stop offset="0" stop-color="#8cc5fc"/><stop offset="1" stop-color="#d5a8fb"/></linearGradient><path fill="url(#6fugk4PzOTSoSF8yJ3ewBa)" d="M46,16.76v22.481c6.064-3.628,9.399-8.903,10.656-11.239 C55.389,25.649,52.054,20.382,46,16.76z"/><g><linearGradient id="6fugk4PzOTSoSF8yJ3ewBb" x1="32" x2="32" y1="9.298" y2="61.273" gradientUnits="userSpaceOnUse"><stop offset="0" stop-color="#1a6dff"/><stop offset="1" stop-color="#c822ff"/></linearGradient><path fill="url(#6fugk4PzOTSoSF8yJ3ewBb)" d="M55.985,35.9l5.49,5.489l1.414-1.414l-5.634-5.633c2.503-3.259,3.638-5.886,3.667-5.955 c0.105-0.25,0.105-0.527,0-0.773C60.844,27.43,52.887,9,32,9S3.156,27.43,3.078,27.613c-0.105,0.25-0.105,0.527,0,0.773 c0.029,0.069,1.164,2.695,3.667,5.955l-5.634,5.633l1.414,1.414l5.49-5.489c1.087,1.263,2.37,2.568,3.857,3.824l-4.517,6.645 l1.654,1.125l4.434-6.524c1.239,0.921,2.599,1.792,4.089,2.572l-2.728,6.587l1.848,0.766l2.688-6.488 c1.388,0.612,2.875,1.138,4.466,1.555l-1.515,7.942l1.965,0.375l1.502-7.874c1.645,0.318,3.392,0.515,5.243,0.568V55h2v-8.028 c1.851-0.053,3.598-0.25,5.243-0.568l1.502,7.874l1.965-0.375l-1.515-7.942c1.591-0.417,3.078-0.944,4.466-1.555l2.688,6.488 l1.848-0.766l-2.728-6.587c1.49-0.78,2.85-1.651,4.089-2.572l4.434,6.524l1.654-1.125l-4.517-6.645 C53.616,38.468,54.898,37.162,55.985,35.9z M32,45C14.113,45,6.34,30.563,5.102,28C6.336,25.43,14.082,11,32,11 c17.887,0,25.66,14.438,26.898,17C57.664,30.57,49.918,45,32,45z"/><linearGradient id="6fugk4PzOTSoSF8yJ3ewBc" x1="20.08" x2="20.08" y1="9.298" y2="61.273" gradientUnits="userSpaceOnUse"><stop offset="0" stop-color="#1a6dff"/><stop offset="1" stop-color="#c822ff"/></linearGradient><path fill="url(#6fugk4PzOTSoSF8yJ3ewBc)" d="M8.161,27.313l1.765,0.941C14.285,20.078,22.744,15,32,15v-2 C22.003,13,12.869,18.484,8.161,27.313z"/><linearGradient id="6fugk4PzOTSoSF8yJ3ewBd" x1="21.834" x2="21.834" y1="9.298" y2="61.273" gradientUnits="userSpaceOnUse"><stop offset="0" stop-color="#1a6dff"/><stop offset="1" stop-color="#c822ff"/></linearGradient><path fill="url(#6fugk4PzOTSoSF8yJ3ewBd)" d="M11.667,29.214l1.766,0.939C17.094,23.267,24.208,18.988,32,18.988v-2 C23.467,16.988,15.675,21.673,11.667,29.214z"/></g></svg>